<mxfile host="65bd71144e">
    <diagram id="x9XNGW5LkidrqF7Gqg8y" name="Page-1">
        <mxGraphModel dx="781" dy="361" grid="1" gridSize="10" guides="1" tooltips="1" connect="1" arrows="1" fold="1" page="1" pageScale="1" pageWidth="850" pageHeight="1100" math="0" shadow="0">
            <root>
                <mxCell id="0"/>
                <mxCell id="1" parent="0"/>
                <mxCell id="4" value="" style="rounded=0;whiteSpace=wrap;html=1;" parent="1" vertex="1">
                    <mxGeometry x="120" y="205" width="510" height="60" as="geometry"/>
                </mxCell>
                <mxCell id="2" value="S" style="text;html=1;strokeColor=none;fillColor=none;align=center;verticalAlign=middle;whiteSpace=wrap;rounded=0;" parent="1" vertex="1">
                    <mxGeometry x="120" y="220" width="60" height="30" as="geometry"/>
                </mxCell>
                <mxCell id="3" value="0" style="ellipse;whiteSpace=wrap;html=1;aspect=fixed;flipH=1;flipV=1;" parent="1" vertex="1">
                    <mxGeometry x="170" y="215" width="40" height="40" as="geometry"/>
                </mxCell>
                <mxCell id="5" value="1" style="ellipse;whiteSpace=wrap;html=1;aspect=fixed;flipH=1;flipV=1;" parent="1" vertex="1">
                    <mxGeometry x="220" y="215" width="40" height="40" as="geometry"/>
                </mxCell>
                <mxCell id="6" value="2" style="ellipse;whiteSpace=wrap;html=1;aspect=fixed;flipH=1;flipV=1;" parent="1" vertex="1">
                    <mxGeometry x="270" y="215" width="40" height="40" as="geometry"/>
                </mxCell>
                <mxCell id="8" value="3" style="ellipse;whiteSpace=wrap;html=1;aspect=fixed;flipH=1;flipV=1;" parent="1" vertex="1">
                    <mxGeometry x="320" y="215" width="40" height="40" as="geometry"/>
                </mxCell>
                <mxCell id="9" value="4" style="ellipse;whiteSpace=wrap;html=1;aspect=fixed;flipH=1;flipV=1;" parent="1" vertex="1">
                    <mxGeometry x="370" y="215" width="40" height="40" as="geometry"/>
                </mxCell>
                <mxCell id="10" value="5" style="ellipse;whiteSpace=wrap;html=1;aspect=fixed;flipH=1;flipV=1;" parent="1" vertex="1">
                    <mxGeometry x="420" y="215" width="40" height="40" as="geometry"/>
                </mxCell>
                <mxCell id="11" value="6" style="ellipse;whiteSpace=wrap;html=1;aspect=fixed;flipH=1;flipV=1;" parent="1" vertex="1">
                    <mxGeometry x="470" y="215" width="40" height="40" as="geometry"/>
                </mxCell>
                <mxCell id="12" value="7" style="ellipse;whiteSpace=wrap;html=1;aspect=fixed;flipH=1;flipV=1;" parent="1" vertex="1">
                    <mxGeometry x="520" y="215" width="40" height="40" as="geometry"/>
                </mxCell>
                <mxCell id="13" value="10" style="ellipse;whiteSpace=wrap;html=1;aspect=fixed;flipH=1;flipV=1;" parent="1" vertex="1">
                    <mxGeometry x="570" y="215" width="40" height="40" as="geometry"/>
                </mxCell>
                <mxCell id="48" value="" style="group" parent="1" vertex="1" connectable="0">
                    <mxGeometry x="210" y="290" width="300" height="60" as="geometry"/>
                </mxCell>
                <mxCell id="28" value="-1" style="rounded=0;whiteSpace=wrap;html=1;" parent="48" vertex="1">
                    <mxGeometry x="15" y="30" width="30" height="30" as="geometry"/>
                </mxCell>
                <mxCell id="29" value="-1" style="rounded=0;whiteSpace=wrap;html=1;" parent="48" vertex="1">
                    <mxGeometry x="45" y="30" width="30" height="30" as="geometry"/>
                </mxCell>
                <mxCell id="30" value="-1" style="rounded=0;whiteSpace=wrap;html=1;" parent="48" vertex="1">
                    <mxGeometry x="75" y="30" width="30" height="30" as="geometry"/>
                </mxCell>
                <mxCell id="31" value="-1" style="rounded=0;whiteSpace=wrap;html=1;" parent="48" vertex="1">
                    <mxGeometry x="105" y="30" width="30" height="30" as="geometry"/>
                </mxCell>
                <mxCell id="32" value="-1" style="rounded=0;whiteSpace=wrap;html=1;" parent="48" vertex="1">
                    <mxGeometry x="135" y="30" width="30" height="30" as="geometry"/>
                </mxCell>
                <mxCell id="33" value="-1" style="rounded=0;whiteSpace=wrap;html=1;" parent="48" vertex="1">
                    <mxGeometry x="165" y="30" width="30" height="30" as="geometry"/>
                </mxCell>
                <mxCell id="34" value="-1" style="rounded=0;whiteSpace=wrap;html=1;" parent="48" vertex="1">
                    <mxGeometry x="195" y="30" width="30" height="30" as="geometry"/>
                </mxCell>
                <mxCell id="35" value="-1" style="rounded=0;whiteSpace=wrap;html=1;" parent="48" vertex="1">
                    <mxGeometry x="225" y="30" width="30" height="30" as="geometry"/>
                </mxCell>
                <mxCell id="36" value="-1" style="rounded=0;whiteSpace=wrap;html=1;" parent="48" vertex="1">
                    <mxGeometry x="255" y="30" width="30" height="30" as="geometry"/>
                </mxCell>
                <mxCell id="37" value="0" style="text;html=1;strokeColor=none;fillColor=none;align=center;verticalAlign=middle;whiteSpace=wrap;rounded=0;" parent="48" vertex="1">
                    <mxGeometry width="60" height="30" as="geometry"/>
                </mxCell>
                <mxCell id="38" value="1" style="text;html=1;strokeColor=none;fillColor=none;align=center;verticalAlign=middle;whiteSpace=wrap;rounded=0;" parent="48" vertex="1">
                    <mxGeometry x="30" width="60" height="30" as="geometry"/>
                </mxCell>
                <mxCell id="39" value="2" style="text;html=1;strokeColor=none;fillColor=none;align=center;verticalAlign=middle;whiteSpace=wrap;rounded=0;" parent="48" vertex="1">
                    <mxGeometry x="60" width="60" height="30" as="geometry"/>
                </mxCell>
                <mxCell id="40" value="3" style="text;html=1;strokeColor=none;fillColor=none;align=center;verticalAlign=middle;whiteSpace=wrap;rounded=0;" parent="48" vertex="1">
                    <mxGeometry x="90" width="60" height="30" as="geometry"/>
                </mxCell>
                <mxCell id="41" value="4" style="text;html=1;strokeColor=none;fillColor=none;align=center;verticalAlign=middle;whiteSpace=wrap;rounded=0;" parent="48" vertex="1">
                    <mxGeometry x="120" width="60" height="30" as="geometry"/>
                </mxCell>
                <mxCell id="42" value="5" style="text;html=1;strokeColor=none;fillColor=none;align=center;verticalAlign=middle;whiteSpace=wrap;rounded=0;" parent="48" vertex="1">
                    <mxGeometry x="150" width="60" height="30" as="geometry"/>
                </mxCell>
                <mxCell id="43" value="6" style="text;html=1;strokeColor=none;fillColor=none;align=center;verticalAlign=middle;whiteSpace=wrap;rounded=0;" parent="48" vertex="1">
                    <mxGeometry x="180" width="60" height="30" as="geometry"/>
                </mxCell>
                <mxCell id="44" value="7" style="text;html=1;strokeColor=none;fillColor=none;align=center;verticalAlign=middle;whiteSpace=wrap;rounded=0;" parent="48" vertex="1">
                    <mxGeometry x="210" width="60" height="30" as="geometry"/>
                </mxCell>
                <mxCell id="45" value="10" style="text;html=1;strokeColor=none;fillColor=none;align=center;verticalAlign=middle;whiteSpace=wrap;rounded=0;" parent="48" vertex="1">
                    <mxGeometry x="240" width="60" height="30" as="geometry"/>
                </mxCell>
                <mxCell id="49" value="&lt;div style=&quot;font-family: Consolas, &amp;quot;Courier New&amp;quot;, monospace; line-height: 19px;&quot;&gt;&lt;span style=&quot;&quot;&gt;&lt;font style=&quot;font-size: 9px;&quot;&gt;并查集初始化形成的数组表示&lt;/font&gt;&lt;/span&gt;&lt;/div&gt;" style="text;html=1;strokeColor=none;fillColor=none;align=center;verticalAlign=middle;whiteSpace=wrap;rounded=0;fontColor=default;labelBackgroundColor=none;labelBorderColor=none;" parent="1" vertex="1">
                    <mxGeometry x="130" y="305" width="80" height="30" as="geometry"/>
                </mxCell>
            </root>
        </mxGraphModel>
    </diagram>
</mxfile>